<!DOCTYPE svg PUBLIC "-//W3C//DTD SVG 20010904//EN" "http://www.w3.org/TR/2001/REC-SVG-20010904/DTD/svg10.dtd">
<svg version="1.0" xmlns="http://www.w3.org/2000/svg" width="120px" height="80px" viewBox="0 0 120 80" preserveAspectRatio="xMidYMid meet">
 <g id="layer101" fill="#3b3d98" stroke="none">
  <path d="M49.6 60.7 c-0.08 -0.05 -0.37 -0.19 -0.65 -0.32 -1.04 -0.45 -2.17 -1.36 -2.75 -2.18 -0.13 -0.19 -0.27 -0.37 -0.31 -0.4 -0.03 -0.03 -0.11 -0.15 -0.18 -0.27 l-0.12 -0.23 -0.52 0.3 c-0.59 0.33 -1.59 0.68 -2.29 0.79 -0.76 0.13 -0.55 -0.03 0.3 -0.23 0.42 -0.09 1.14 -0.35 1.59 -0.57 0.45 -0.21 0.88 -0.39 0.95 -0.39 0.08 0 0.22 0.14 0.32 0.31 0.64 1.09 1.83 2.13 3.12 2.74 0.41 0.2 0.74 0.4 0.74 0.45 0 0.12 0 0.12 -0.2 0z"/>
  <path d="M0.6 59.9 c0 -0.07 2.68 -0.1 7.85 -0.1 5.17 0 7.85 0.03 7.85 0.1 0 0.07 -2.68 0.1 -7.85 0.1 -5.17 0 -7.85 -0.03 -7.85 -0.1z"/>
  <path d="M50.75 53.12 c-1.04 -0.52 -2.22 -0.96 -2.85 -1.07 -0.4 -0.07 -0.76 -0.21 -0.9 -0.35 -0.03 -0.03 -0.3 -0.16 -0.6 -0.3 -1.31 -0.59 -2.31 -1.4 -3.1 -2.51 l-0.46 -0.67 -0.25 0.19 c-0.13 0.1 -0.27 0.19 -0.32 0.19 -0.04 0 -0.26 0.08 -0.5 0.19 -0.63 0.28 -0.96 0.39 -1.62 0.52 -0.33 0.07 -0.64 0.16 -0.7 0.21 -0.05 0.04 -0.81 0.08 -1.7 0.09 -0.88 0 -2.18 0.06 -2.89 0.12 l-1.28 0.12 0.07 -0.5 c0.04 -0.27 0.11 -1.4 0.15 -2.5 0.14 -3.75 0.42 -4.84 1.62 -6.43 0.27 -0.35 0.48 -0.66 0.48 -0.7 0 -0.05 -0.21 -0.28 -0.46 -0.52 -0.57 -0.56 -0.89 -1.02 -1.47 -2.11 -0.41 -0.78 -0.97 -2.24 -0.97 -2.53 0 -0.06 -0.29 -0.83 -0.64 -1.69 -0.42 -1.02 -0.6 -1.6 -0.53 -1.62 0.07 -0.02 0.26 -0.06 0.42 -0.09 0.98 -0.16 2.03 -0.38 2.25 -0.46 1.54 -0.56 2.91 -0.83 4.3 -0.83 1.94 -0.01 3.26 0.51 4.47 1.75 1.66 1.7 2.41 3.58 2.31 5.79 -0.05 1.11 -0.18 1.61 -0.73 2.74 -0.54 1.1 -0.77 1.92 -0.82 2.88 -0.07 1.18 0.12 1.84 0.8 2.82 0.24 0.34 1.17 1.25 1.28 1.25 0.04 0 0.14 0.06 0.21 0.13 0.18 0.16 0.37 0.27 1.6 0.89 0.57 0.28 1.29 0.69 1.6 0.9 0.31 0.21 0.59 0.38 0.62 0.38 0.02 0 0.14 -0.3 0.26 -0.66 0.2 -0.64 0.29 -0.85 0.9 -2.19 0.26 -0.58 0.31 -0.73 0.61 -1.6 0.07 -0.24 0.13 -0.83 0.12 -1.47 0 -0.6 0.01 -1.08 0.02 -1.08 0.1 0 0.69 1.08 0.91 1.66 0.24 0.63 0.27 0.82 0.27 2.14 0.01 1.49 -0.06 1.98 -0.48 3.25 -0.33 1 -0.7 2.47 -0.86 3.38 -0.07 0.42 -0.15 0.76 -0.18 0.76 -0.04 -0.01 -0.46 -0.22 -0.96 -0.47z m-8.3 -5.83 c0.03 -0.03 0 -0.32 -0.06 -0.65 -0.12 -0.65 -0.06 -2.7 0.09 -3.19 0.05 -0.16 0.15 -0.5 0.22 -0.75 0.28 -0.97 0.83 -1.92 1.56 -2.67 0.7 -0.72 0.71 -0.73 0.45 -0.8 -0.14 -0.04 -0.93 -0.07 -1.76 -0.07 -1.33 0 -1.57 0.03 -2.1 0.23 -0.33 0.13 -0.78 0.36 -1.01 0.52 -0.46 0.31 -1.24 1.17 -1.24 1.36 0 0.07 -0.03 0.13 -0.08 0.13 -0.08 0 -0.36 0.62 -0.56 1.24 -0.14 0.41 -0.25 0.97 -0.47 2.36 -0.1 0.65 -0.32 1.6 -0.46 1.96 -0.03 0.07 0.41 0.13 1.34 0.18 0.76 0.04 1.58 0.11 1.83 0.16 0.47 0.09 2.15 0.08 2.25 -0.01z m-4.05 -8.88 c0.41 -0.13 0.88 -0.27 1.04 -0.32 0.16 -0.05 0.92 -0.09 1.7 -0.09 1.74 0 2.58 0.22 3.72 0.97 l0.26 0.16 -0.07 -0.39 c-0.1 -0.69 -0.27 -1.48 -0.37 -1.79 -0.24 -0.71 -0.48 -1.25 -0.65 -1.43 -0.07 -0.07 -0.13 -0.18 -0.13 -0.22 0 -0.2 -1.12 -1.21 -1.57 -1.41 -0.96 -0.43 -1.43 -0.52 -2.73 -0.51 -0.69 0.01 -1.41 0.06 -1.6 0.12 -0.19 0.05 -0.89 0.13 -1.56 0.16 l-1.21 0.07 0.14 0.28 c0.16 0.32 0.35 1.07 0.52 2.04 0.16 0.94 0.29 1.48 0.53 2.2 0.29 0.86 0.32 0.89 0.82 0.62 0.22 -0.13 0.75 -0.33 1.16 -0.46z"/>
  <path d="M79.14 46.35 c0.22 -0.17 0.4 -0.2 0.32 -0.06 -0.03 0.05 -0.16 0.11 -0.28 0.14 -0.22 0.06 -0.22 0.05 -0.04 -0.08z"/>
  <path d="M78.29 45.8 c0.25 -0.21 0.51 -0.26 0.51 -0.1 0 0.12 -0.34 0.3 -0.57 0.3 -0.16 -0.01 -0.15 -0.03 0.06 -0.2z"/>
  <path d="M77.1 44.91 c0 -0.11 0.4 -0.41 0.88 -0.65 0.51 -0.26 0.37 -0.04 -0.23 0.37 -0.59 0.4 -0.65 0.42 -0.65 0.28z"/>
  <path d="M68.75 44.32 c-0.27 -0.15 -0.71 -0.42 -0.98 -0.6 -0.62 -0.43 -1.97 -1.12 -2.18 -1.12 -0.33 0 -1.15 -0.42 -1.52 -0.78 -0.65 -0.62 -0.9 -1.23 -0.91 -2.22 -0.02 -1.6 0.56 -2.61 1.82 -3.17 0.41 -0.18 0.7 -0.23 1.35 -0.23 1.78 0 2.82 0.81 3.17 2.47 0.32 1.53 -0.47 3.07 -1.87 3.69 -0.48 0.22 -0.63 0.44 -0.29 0.44 0.07 0 0.34 0.11 0.62 0.24 0.49 0.23 0.92 0.42 1.48 0.65 0.5 0.2 1.47 0.25 1.93 0.08 0.36 -0.12 0.43 -0.12 0.47 0 0.04 0.08 0.06 0.16 0.06 0.18 0 0.01 -0.29 0.17 -0.64 0.34 -0.88 0.42 -1.78 0.44 -2.51 0.03z m-1.44 -2.26 c0.8 -0.34 1.29 -1.3 1.29 -2.52 0 -1.82 -0.9 -2.94 -2.35 -2.94 -1.19 0 -1.95 0.75 -2.13 2.1 -0.15 1.07 0.14 2.24 0.71 2.86 0.55 0.58 1.72 0.82 2.48 0.5z"/>
  <path d="M77.4 42.61 c-0.51 -0.07 -0.56 -0.21 -0.13 -0.36 0.55 -0.2 0.53 -0.08 0.53 -2.84 0 -2.76 -0.01 -2.81 -0.52 -2.81 -0.18 0 -0.28 -0.05 -0.28 -0.15 0 -0.13 0.31 -0.15 2.2 -0.15 l2.2 0 0 0.75 c0 0.67 -0.02 0.75 -0.19 0.75 -0.13 0 -0.23 -0.11 -0.31 -0.34 -0.19 -0.58 -0.37 -0.67 -1.26 -0.64 l-0.79 0.03 -0.03 1.08 -0.03 1.07 1.11 0 1.1 0 0 0.3 c0 0.39 -0.09 0.42 -1.28 0.44 l-0.97 0.01 -0.03 1.02 c-0.03 1 -0.02 1.02 0.23 1.19 0.38 0.25 1.68 0.14 2 -0.16 0.37 -0.35 0.59 -0.23 0.63 0.33 l0.03 0.47 -1.68 0 c-0.92 0 -1.77 0.02 -1.88 0.04 -0.11 0.02 -0.4 0.01 -0.65 -0.03z"/>
  <path d="M85.02 39.78 c0.02 -0.17 0.11 -0.24 0.31 -0.26 0.3 -0.04 0.33 0.04 0.13 0.31 -0.2 0.25 -0.48 0.22 -0.44 -0.05z"/>
</g>
 <g id="layer102" fill="#712b90" stroke="none">
  <path d="M49.25 60.52 c-0.44 -0.18 -1.38 -0.71 -1.7 -0.95 -0.38 -0.29 -0.09 -0.26 0.35 0.04 0.25 0.16 0.78 0.45 1.18 0.64 0.39 0.2 0.72 0.37 0.72 0.4 0 0.08 -0.12 0.05 -0.55 -0.13z"/>
  <path d="M48.7 52.26 c-0.14 -0.07 -0.47 -0.17 -0.75 -0.21 -0.27 -0.04 -0.54 -0.1 -0.6 -0.15 -0.05 -0.04 -0.62 -0.34 -1.25 -0.66 -0.94 -0.49 -1.28 -0.72 -1.9 -1.34 -0.42 -0.41 -0.88 -0.95 -1.04 -1.2 l-0.28 -0.46 -0.72 0.36 c-0.39 0.2 -0.89 0.41 -1.11 0.48 -0.78 0.23 -1.26 0.33 -1.34 0.28 -0.05 -0.03 -0.14 0.01 -0.21 0.09 -0.1 0.12 -0.44 0.15 -1.74 0.16 -0.88 0 -2.19 0.06 -2.9 0.12 l-1.28 0.12 0.07 -0.5 c0.04 -0.27 0.11 -1.4 0.15 -2.5 0.14 -3.75 0.42 -4.84 1.62 -6.43 0.27 -0.35 0.48 -0.66 0.48 -0.7 0 -0.05 -0.21 -0.28 -0.46 -0.52 -0.57 -0.56 -0.89 -1.02 -1.47 -2.11 -0.41 -0.78 -0.97 -2.24 -0.97 -2.53 0 -0.06 -0.29 -0.82 -0.64 -1.68 -0.35 -0.87 -0.61 -1.6 -0.58 -1.63 0.03 -0.03 0.17 -0.05 0.3 -0.05 0.14 0 0.39 -0.04 0.56 -0.1 0.17 -0.05 0.65 -0.16 1.06 -0.23 0.41 -0.08 1.21 -0.29 1.77 -0.46 1.37 -0.42 2.19 -0.55 3.38 -0.55 1.77 0.01 3.08 0.5 4.25 1.6 0.7 0.66 1.74 2.11 1.92 2.67 0.05 0.18 0.12 0.39 0.16 0.47 0.03 0.08 0.07 0.22 0.08 0.3 0.01 0.08 0.1 0.42 0.19 0.75 0.12 0.45 0.15 0.88 0.12 1.7 -0.04 1.18 -0.16 1.63 -0.72 2.8 -0.96 1.98 -1.11 3.8 -0.42 5.05 0.44 0.79 1.39 1.83 1.79 1.96 0.1 0.03 0.18 0.09 0.18 0.14 0 0.04 0.08 0.1 0.18 0.14 0.09 0.03 0.66 0.32 1.26 0.63 l1.08 0.58 -0.01 1.77 c-0.02 1.6 0 1.78 0.16 1.87 0.28 0.16 -0.06 0.13 -0.37 -0.03z m-6.25 -4.97 c0.03 -0.03 0 -0.32 -0.06 -0.65 -0.12 -0.65 -0.06 -2.7 0.09 -3.19 0.05 -0.16 0.15 -0.5 0.22 -0.75 0.28 -0.97 0.83 -1.92 1.56 -2.67 0.7 -0.72 0.71 -0.73 0.45 -0.8 -0.14 -0.04 -0.93 -0.07 -1.76 -0.07 -1.33 0 -1.57 0.03 -2.1 0.23 -0.78 0.31 -1.32 0.68 -1.83 1.28 -0.44 0.5 -0.91 1.39 -1.1 2.08 -0.27 1.01 -0.32 1.24 -0.32 1.53 0 0.41 -0.37 2.17 -0.57 2.67 -0.03 0.08 0.37 0.14 1.34 0.19 0.76 0.04 1.58 0.11 1.83 0.16 0.47 0.09 2.15 0.08 2.25 -0.01z m-4.05 -8.88 c0.41 -0.13 0.88 -0.27 1.04 -0.32 0.16 -0.05 0.92 -0.09 1.7 -0.09 1.74 0 2.58 0.22 3.72 0.97 l0.26 0.16 -0.07 -0.39 c-0.1 -0.69 -0.27 -1.48 -0.37 -1.79 -0.24 -0.71 -0.48 -1.25 -0.65 -1.43 -0.07 -0.07 -0.13 -0.18 -0.13 -0.22 0 -0.2 -1.12 -1.21 -1.57 -1.41 -0.96 -0.43 -1.43 -0.52 -2.73 -0.51 -0.69 0.01 -1.41 0.06 -1.6 0.12 -0.19 0.05 -0.89 0.13 -1.56 0.16 l-1.21 0.07 0.14 0.28 c0.16 0.32 0.35 1.07 0.52 2.04 0.16 0.94 0.29 1.48 0.53 2.2 0.29 0.86 0.32 0.89 0.82 0.62 0.22 -0.13 0.75 -0.33 1.16 -0.46z"/>
</g>
 <g id="layer103" fill="#ea1b5a" stroke="none">
  <path d="M47.7 52.03 c-0.14 -0.03 -0.37 -0.14 -0.51 -0.24 -0.15 -0.1 -0.32 -0.19 -0.38 -0.19 -0.06 0 -0.11 -0.05 -0.11 -0.12 0 -0.06 -0.03 -0.08 -0.07 -0.05 -0.06 0.07 -1.36 -0.59 -1.69 -0.85 -0.51 -0.4 -1.44 -1.4 -1.72 -1.84 l-0.33 -0.5 -0.72 0.36 c-0.4 0.2 -0.9 0.41 -1.12 0.48 -0.78 0.23 -1.26 0.33 -1.34 0.28 -0.05 -0.03 -0.14 0.01 -0.21 0.09 -0.1 0.12 -0.44 0.15 -1.74 0.16 -0.88 0 -2.19 0.06 -2.9 0.12 l-1.28 0.12 0.07 -0.5 c0.04 -0.27 0.11 -1.42 0.15 -2.55 0.08 -1.8 0.14 -2.54 0.35 -3.75 0.11 -0.7 0.64 -1.8 1.25 -2.6 0.28 -0.35 0.5 -0.69 0.5 -0.75 0 -0.05 -0.24 -0.34 -0.53 -0.63 -0.64 -0.62 -0.81 -0.86 -1.39 -1.97 -0.44 -0.85 -0.65 -1.36 -0.88 -2.2 -0.07 -0.25 -0.41 -1.16 -0.75 -2.02 -0.34 -0.87 -0.6 -1.6 -0.57 -1.63 0.03 -0.03 0.17 -0.05 0.3 -0.05 0.14 0 0.39 -0.04 0.56 -0.1 0.17 -0.05 0.65 -0.16 1.06 -0.23 0.41 -0.08 1.21 -0.29 1.77 -0.46 0.56 -0.17 1.33 -0.36 1.7 -0.43 0.89 -0.16 2.56 -0.15 3.13 0.01 0.25 0.07 0.53 0.14 0.62 0.16 0.49 0.1 1.55 0.72 2.09 1.23 0.55 0.5 1.39 1.52 1.39 1.67 0 0.03 0.13 0.23 0.29 0.46 0.16 0.22 0.33 0.55 0.36 0.72 0.04 0.18 0.11 0.37 0.15 0.42 0.04 0.06 0.07 0.17 0.08 0.25 0 0.08 0.07 0.41 0.16 0.73 0.38 1.37 0.11 3.26 -0.65 4.64 -0.4 0.71 -0.72 1.88 -0.77 2.76 -0.06 1.18 0.13 1.84 0.81 2.82 0.24 0.34 1.17 1.25 1.28 1.25 0.04 0 0.14 0.06 0.21 0.13 0.15 0.13 0.47 0.33 0.9 0.54 0.15 0.08 0.31 0.2 0.35 0.26 0.04 0.07 0 0.06 -0.1 -0.02 -0.26 -0.21 -0.28 -0.05 -0.25 1.89 l0.03 1.75 0.55 0.22 c0.52 0.21 0.48 0.26 -0.1 0.16z m-5.25 -4.74 c0.03 -0.03 0 -0.32 -0.06 -0.65 -0.12 -0.65 -0.06 -2.7 0.09 -3.19 0.05 -0.16 0.15 -0.5 0.22 -0.75 0.28 -0.97 0.83 -1.92 1.56 -2.67 0.7 -0.72 0.71 -0.73 0.45 -0.8 -0.14 -0.04 -0.93 -0.07 -1.76 -0.07 -1.33 0 -1.57 0.03 -2.1 0.23 -0.78 0.31 -1.32 0.68 -1.83 1.28 -0.44 0.5 -0.91 1.39 -1.1 2.08 -0.27 1.01 -0.32 1.24 -0.32 1.53 0 0.41 -0.37 2.17 -0.57 2.67 -0.03 0.08 0.37 0.14 1.34 0.19 0.76 0.04 1.56 0.11 1.78 0.16 0.42 0.09 2.2 0.08 2.3 -0.01z m-4.1 -8.87 c1.23 -0.38 1.47 -0.42 2.85 -0.42 1.67 0 2.53 0.23 3.66 0.97 l0.26 0.16 -0.07 -0.39 c-0.1 -0.69 -0.27 -1.48 -0.37 -1.79 -0.24 -0.71 -0.48 -1.25 -0.65 -1.43 -0.07 -0.07 -0.13 -0.18 -0.13 -0.23 0 -0.2 -1.11 -1.19 -1.56 -1.4 -0.95 -0.43 -1.44 -0.52 -2.7 -0.51 -0.66 0 -1.38 0.05 -1.6 0.11 -0.21 0.06 -0.93 0.13 -1.6 0.17 l-1.21 0.07 0.15 0.3 c0.2 0.41 0.33 0.95 0.63 2.7 0.11 0.65 0.55 2.05 0.71 2.24 0.08 0.1 0.19 0.07 0.52 -0.1 0.22 -0.13 0.73 -0.33 1.11 -0.45z"/>
</g>
 <g id="layer104" fill="#b91b86" stroke="none">
  <path d="M49.42 60.59 c-0.2 -0.08 -0.6 -0.39 -0.5 -0.39 0.09 0 0.88 0.41 0.88 0.45 0 0.07 -0.11 0.05 -0.38 -0.06z"/>
  <path d="M47.7 52.03 c-0.14 -0.03 -0.37 -0.14 -0.51 -0.24 -0.15 -0.1 -0.32 -0.19 -0.38 -0.19 -0.06 0 -0.11 -0.05 -0.11 -0.12 0 -0.06 -0.03 -0.08 -0.07 -0.05 -0.06 0.07 -1.36 -0.59 -1.69 -0.85 -0.51 -0.4 -1.44 -1.4 -1.72 -1.84 l-0.33 -0.5 -0.72 0.36 c-0.4 0.2 -0.9 0.41 -1.12 0.48 -0.78 0.23 -1.26 0.33 -1.34 0.28 -0.05 -0.03 -0.14 0.01 -0.21 0.09 -0.1 0.12 -0.44 0.15 -1.74 0.16 -0.88 0 -2.19 0.06 -2.89 0.12 l-1.29 0.12 0.07 -0.7 c0.04 -0.38 0.1 -0.74 0.12 -0.79 0.03 -0.04 0.05 -0.83 0.05 -1.75 -0.01 -0.91 0.02 -1.74 0.06 -1.84 0.04 -0.1 0.06 0.57 0.04 1.48 l-0.04 1.67 0.33 -0.05 c0.19 -0.03 0.67 -0.17 1.07 -0.32 0.4 -0.14 0.81 -0.28 0.9 -0.3 0.59 -0.12 0.7 -0.23 0.93 -0.94 0.13 -0.39 0.24 -0.69 0.26 -0.67 0.04 0.03 -0.21 0.98 -0.34 1.32 -0.03 0.07 0.39 0.13 1.29 0.17 0.73 0.04 1.6 0.12 1.93 0.18 0.56 0.1 2.09 0.09 2.2 -0.03 0.03 -0.02 0 -0.31 -0.06 -0.64 -0.12 -0.65 -0.06 -2.7 0.09 -3.19 0.05 -0.16 0.15 -0.5 0.22 -0.75 0.28 -0.97 0.83 -1.92 1.56 -2.67 0.39 -0.4 0.66 -0.75 0.6 -0.77 -0.06 -0.02 -0.03 -0.05 0.07 -0.05 0.09 -0.01 0.17 -0.06 0.17 -0.12 0 -0.05 0.04 -0.07 0.1 -0.04 0.1 0.06 -0.1 0.65 -0.41 1.22 -0.4 0.71 -0.72 1.88 -0.77 2.76 -0.06 1.18 0.13 1.84 0.81 2.82 0.24 0.34 1.17 1.25 1.28 1.25 0.04 0 0.14 0.06 0.21 0.13 0.15 0.13 0.47 0.33 0.9 0.54 0.15 0.08 0.31 0.2 0.35 0.26 0.04 0.07 0 0.06 -0.1 -0.02 -0.26 -0.21 -0.28 -0.05 -0.25 1.89 l0.03 1.75 0.55 0.22 c0.52 0.21 0.48 0.26 -0.1 0.16z"/>
  <path d="M35.9 39.76 c0 -0.09 -0.22 -0.37 -0.48 -0.63 -0.26 -0.27 -0.59 -0.64 -0.74 -0.83 -0.47 -0.65 -1.15 -2.06 -1.43 -2.96 -0.32 -1.03 -0.62 -1.86 -1.1 -2.99 -0.47 -1.12 -0.47 -1.08 0.05 -1.17 1.06 -0.18 2.32 -0.48 3.27 -0.77 0.56 -0.17 1.33 -0.36 1.7 -0.43 0.89 -0.16 2.56 -0.15 3.13 0.01 0.45 0.13 0.69 0.19 0.82 0.2 0.04 0.01 0.07 0.09 0.07 0.19 0 0.09 0.03 0.37 0.06 0.62 0.04 0.25 0.08 0.59 0.1 0.75 0.01 0.17 0.04 0.3 0.05 0.3 0.03 0 0.09 0.38 0.12 0.73 0.01 0.17 0.05 0.32 0.09 0.32 0.05 0 0.06 0.09 0.04 0.2 -0.02 0.11 0 0.2 0.04 0.2 0.04 0 0.16 0.06 0.27 0.14 0.12 0.1 -0.01 0.08 -0.41 -0.06 -0.49 -0.16 -0.84 -0.2 -1.9 -0.2 -0.71 0.01 -1.45 0.06 -1.63 0.11 -0.19 0.06 -0.89 0.13 -1.56 0.17 l-1.23 0.07 0.15 0.3 c0.2 0.41 0.33 0.94 0.63 2.7 0.11 0.65 0.55 2.05 0.71 2.24 0.06 0.07 0.15 0.1 0.22 0.06 0.16 -0.09 -0.01 0.07 -0.56 0.51 -0.34 0.26 -0.48 0.33 -0.48 0.22z"/>
  <path d="M42.43 39.03 c0.2 -0.02 0.54 -0.02 0.75 0 0.2 0.02 0.03 0.04 -0.38 0.04 -0.41 0 -0.58 -0.02 -0.37 -0.04z"/>
  <path d="M37.1 38.95 c0 -0.04 0.6 -0.35 0.69 -0.35 0.08 0 -0.32 0.26 -0.51 0.33 -0.1 0.04 -0.18 0.05 -0.18 0.02z"/>
  <path d="M43.11 34.44 c-0.07 -0.08 -0.11 -0.17 -0.09 -0.2 0.03 -0.02 0.13 0.05 0.23 0.16 0.1 0.11 0.14 0.2 0.09 0.2 -0.05 -0.01 -0.15 -0.08 -0.23 -0.16z"/>
  <path d="M44.82 33.97 c-0.12 -0.27 -0.2 -0.52 -0.18 -0.54 0.06 -0.06 0.48 0.85 0.44 0.96 -0.01 0.05 -0.13 -0.14 -0.26 -0.42z"/>
</g>
 <g id="layer105" fill="#f04b48" stroke="none">
  <path d="M35.9 39.71 c0 -0.06 -0.22 -0.32 -0.48 -0.58 -0.26 -0.27 -0.59 -0.64 -0.74 -0.83 -0.47 -0.65 -1.15 -2.06 -1.43 -2.96 -0.32 -1.03 -0.62 -1.86 -1.1 -2.99 -0.47 -1.12 -0.47 -1.08 0.05 -1.17 1.06 -0.18 2.32 -0.48 3.27 -0.77 0.56 -0.17 1.33 -0.36 1.7 -0.43 0.89 -0.16 2.56 -0.15 3.13 0.01 0.45 0.13 0.69 0.19 0.82 0.2 0.04 0.01 0.07 0.09 0.07 0.19 0 0.09 0.03 0.37 0.06 0.62 0.04 0.25 0.08 0.59 0.1 0.75 0.01 0.17 0.04 0.3 0.05 0.3 0.03 0 0.09 0.38 0.12 0.73 0.01 0.17 0.05 0.32 0.09 0.32 0.05 0 0.06 0.09 0.04 0.2 -0.02 0.11 0 0.2 0.04 0.2 0.04 0 0.16 0.06 0.27 0.14 0.12 0.1 -0.01 0.08 -0.41 -0.06 -0.49 -0.16 -0.84 -0.2 -1.9 -0.2 -0.71 0.01 -1.45 0.06 -1.63 0.11 -0.19 0.06 -0.89 0.13 -1.57 0.17 -1.09 0.06 -1.22 0.09 -1.15 0.23 0.29 0.58 0.45 1.24 0.75 3.06 0.08 0.5 0.53 1.86 0.67 2.03 0.08 0.09 0.06 0.17 -0.05 0.3 -0.23 0.25 -0.77 0.55 -0.77 0.43z"/>
  <path d="M44.79 33.83 c-0.22 -0.46 -0.22 -0.5 0.01 -0.15 0.13 0.18 0.2 0.35 0.18 0.37 -0.03 0.03 -0.11 -0.07 -0.19 -0.22z"/>
</g>
 <g id="layer106" fill="#f2662b" stroke="none">
  <path d="M35.9 39.7 c0 -0.06 -0.21 -0.32 -0.48 -0.58 -0.45 -0.45 -0.84 -0.94 -1.08 -1.37 -0.56 -0.99 -0.85 -1.63 -1.08 -2.4 -0.34 -1.08 -0.56 -1.67 -1.11 -3 -0.23 -0.55 -0.4 -1.03 -0.38 -1.07 0.02 -0.05 0.17 -0.08 0.32 -0.08 0.15 0 0.41 -0.04 0.57 -0.09 0.16 -0.06 0.47 -0.12 0.69 -0.15 0.22 -0.03 0.67 -0.13 1 -0.22 0.33 -0.08 0.65 -0.17 0.7 -0.18 0.06 -0.02 0.17 -0.06 0.25 -0.09 0.49 -0.18 1.23 -0.36 1.75 -0.42 0.33 -0.04 0.68 -0.11 0.77 -0.16 0.24 -0.13 0.48 0 0.48 0.26 0 0.13 0.04 0.26 0.09 0.3 0.06 0.03 0.09 0.13 0.08 0.23 -0.01 0.17 0.12 0.93 0.35 2 0.12 0.57 0.09 0.64 -0.25 0.68 -0.36 0.05 -0.61 0.1 -0.77 0.17 -0.15 0.06 -1.5 0.16 -2.23 0.17 -0.32 0 -0.36 0.02 -0.28 0.18 0.29 0.57 0.46 1.26 0.76 3.05 0.09 0.54 0.52 1.86 0.67 2.04 0.1 0.13 0.08 0.19 -0.17 0.4 -0.43 0.35 -0.65 0.46 -0.65 0.33z"/>
</g>
 <g id="layer107" fill="#ffffff" stroke="none">
  <path d="M0.6 59.9 c0 -0.07 2.67 -0.1 7.8 -0.1 5.13 0 7.8 0.03 7.8 0.1 0 0.07 -2.67 0.1 -7.8 0.1 -5.13 0 -7.8 -0.03 -7.8 -0.1z"/>
  <path d="M47.35 51.9 c-0.08 -0.13 0.15 -0.13 0.35 0 0.12 0.08 0.11 0.1 -0.07 0.1 -0.12 0 -0.25 -0.04 -0.28 -0.1z"/>
  <path d="M29.8 49.9 c0 -0.06 0.65 -0.1 1.75 -0.1 1.1 0 1.75 0.04 1.75 0.1 0 0.06 -0.65 0.1 -1.75 0.1 -1.1 0 -1.75 -0.04 -1.75 -0.1z"/>
  <path d="M35.13 49.63 c0.15 -0.02 0.39 -0.02 0.55 0 0.15 0.02 0.02 0.04 -0.28 0.04 -0.3 0 -0.43 -0.02 -0.27 -0.04z"/>
  <path d="M37.73 49.53 c0.15 -0.02 0.39 -0.02 0.55 0 0.15 0.02 0.02 0.04 -0.28 0.04 -0.3 0 -0.43 -0.02 -0.27 -0.04z"/>
  <path d="M38.9 49.5 c0.36 -0.12 0.62 -0.12 0.55 0 -0.03 0.06 -0.23 0.1 -0.43 0.09 -0.33 -0.01 -0.34 -0.02 -0.12 -0.09z"/>
  <path d="M33.84 45.9 c0 -0.58 0.01 -0.81 0.03 -0.52 0.02 0.28 0.02 0.76 0 1.05 -0.02 0.28 -0.03 0.05 -0.03 -0.53z"/>
  <path d="M78.29 45.79 c0.25 -0.2 0.51 -0.25 0.51 -0.1 0 0.14 -0.19 0.24 -0.49 0.27 l-0.26 0.03 0.24 -0.2z"/>
  <path d="M77.1 44.91 c0 -0.11 0.15 -0.23 0.73 -0.54 0.64 -0.36 0.59 -0.2 -0.08 0.26 -0.59 0.39 -0.65 0.42 -0.65 0.28z"/>
  <path d="M68.75 44.32 c-0.27 -0.15 -0.71 -0.42 -0.98 -0.6 -0.62 -0.43 -1.97 -1.12 -2.18 -1.12 -0.33 0 -1.15 -0.42 -1.52 -0.78 -0.65 -0.62 -0.9 -1.23 -0.91 -2.22 -0.02 -1.6 0.56 -2.61 1.82 -3.17 0.41 -0.18 0.7 -0.23 1.35 -0.23 1.78 0 2.82 0.81 3.17 2.47 0.32 1.53 -0.47 3.07 -1.87 3.69 -0.48 0.22 -0.63 0.44 -0.29 0.44 0.07 0 0.34 0.11 0.62 0.24 0.49 0.23 0.92 0.42 1.48 0.65 0.5 0.2 1.47 0.25 1.93 0.08 0.36 -0.12 0.43 -0.12 0.47 0 0.04 0.08 0.06 0.16 0.06 0.18 0 0.01 -0.29 0.17 -0.64 0.34 -0.88 0.42 -1.78 0.44 -2.51 0.03z m-1.44 -2.26 c0.8 -0.34 1.29 -1.3 1.29 -2.52 0 -1.82 -0.9 -2.94 -2.35 -2.94 -1.19 0 -1.95 0.75 -2.13 2.1 -0.21 1.5 0.38 2.91 1.41 3.35 0.42 0.18 1.36 0.19 1.78 0.01z"/>
  <path d="M106.64 43.25 c0 -0.55 0.01 -0.76 0.03 -0.47 0.02 0.29 0.02 0.74 0 1 -0.02 0.26 -0.03 0.02 -0.03 -0.53z"/>
  <path d="M85.79 43.92 c-0.14 -0.16 -0.4 -0.96 -0.39 -1.19 0.01 -0.12 0.4 0.69 0.4 0.83 0 0.06 0.07 0.17 0.15 0.24 0.16 0.13 0.2 0.3 0.07 0.3 -0.04 0 -0.15 -0.08 -0.23 -0.18z"/>
  <path d="M81.8 43.29 c0 -0.14 0.09 -0.34 0.2 -0.44 0.19 -0.18 0.2 -0.17 0.2 0.02 0 0.12 -0.09 0.31 -0.2 0.44 l-0.19 0.24 -0.01 -0.26z"/>
  <path d="M48.55 42.61 c-0.42 -0.08 -1 -0.34 -1.22 -0.57 -0.08 -0.07 -0.22 -0.32 -0.33 -0.56 -0.17 -0.38 -0.2 -0.67 -0.2 -2.52 0 -1.87 -0.02 -2.1 -0.17 -2.22 -0.1 -0.07 -0.28 -0.14 -0.4 -0.14 -0.14 0 -0.23 -0.06 -0.23 -0.15 0 -0.13 0.21 -0.15 1.25 -0.15 1.04 0 1.25 0.02 1.25 0.15 0 0.09 -0.09 0.15 -0.25 0.15 -0.14 0 -0.34 0.09 -0.45 0.2 -0.19 0.19 -0.2 0.33 -0.2 2.05 0 2.01 0.06 2.3 0.54 2.78 0.49 0.49 1.62 0.6 2.21 0.21 0.14 -0.09 0.36 -0.31 0.48 -0.48 0.21 -0.29 0.22 -0.43 0.25 -2.32 0.04 -1.99 0.03 -2.02 -0.19 -2.23 -0.13 -0.11 -0.35 -0.21 -0.51 -0.21 -0.18 0 -0.28 -0.05 -0.28 -0.15 0 -0.12 0.2 -0.15 1.2 -0.15 1 0 1.2 0.03 1.2 0.15 0 0.1 -0.1 0.15 -0.28 0.15 -0.57 0 -0.62 0.17 -0.62 2.21 0 2 -0.09 2.48 -0.52 3.03 -0.48 0.6 -1.58 0.93 -2.53 0.77z"/>
  <path d="M72.75 42.6 c-0.57 -0.1 -0.89 -0.25 -1.19 -0.55 -0.51 -0.51 -0.56 -0.8 -0.56 -3.08 0 -2.31 -0.01 -2.36 -0.62 -2.37 -0.18 0 -0.28 -0.05 -0.28 -0.15 0 -0.13 0.21 -0.15 1.3 -0.15 1.09 0 1.3 0.02 1.3 0.15 0 0.09 -0.09 0.15 -0.25 0.15 -0.14 0 -0.34 0.09 -0.45 0.2 -0.19 0.19 -0.2 0.33 -0.2 2.1 0 1.28 0.04 1.98 0.12 2.17 0.55 1.25 2.52 1.37 3.16 0.2 0.14 -0.27 0.18 -0.65 0.2 -2.28 0.03 -1.94 0.03 -1.97 -0.19 -2.18 -0.13 -0.12 -0.35 -0.21 -0.51 -0.21 -0.18 0 -0.28 -0.05 -0.28 -0.15 0 -0.12 0.2 -0.15 1.2 -0.15 1 0 1.2 0.03 1.2 0.15 0 0.1 -0.1 0.15 -0.28 0.15 -0.57 0 -0.62 0.18 -0.62 2.16 0 2.08 -0.11 2.64 -0.64 3.19 -0.54 0.55 -1.48 0.81 -2.41 0.65z"/>
  <path d="M77.4 42.61 c-0.51 -0.07 -0.56 -0.21 -0.13 -0.36 0.55 -0.2 0.53 -0.08 0.53 -2.84 0 -2.76 -0.01 -2.81 -0.52 -2.81 -0.18 0 -0.28 -0.05 -0.28 -0.15 0 -0.13 0.31 -0.15 2.2 -0.15 l2.2 0 0 0.75 c0 0.67 -0.02 0.75 -0.19 0.75 -0.13 0 -0.23 -0.11 -0.31 -0.34 -0.19 -0.58 -0.37 -0.67 -1.26 -0.64 l-0.79 0.03 -0.03 1.08 -0.03 1.07 1.11 0 1.1 0 0 0.3 c0 0.39 -0.09 0.42 -1.28 0.44 l-0.97 0.01 -0.03 0.99 c-0.04 1.33 0.02 1.4 1.16 1.33 0.68 -0.04 0.88 -0.09 1.07 -0.27 0.37 -0.35 0.59 -0.23 0.63 0.33 l0.03 0.47 -1.68 0 c-0.92 0 -1.77 0.02 -1.88 0.04 -0.11 0.02 -0.4 0.01 -0.65 -0.03z"/>
  <path d="M82.6 42.56 c0.34 -0.43 0.71 -0.78 0.77 -0.73 0.05 0.06 -0.3 0.43 -0.73 0.77 -0.18 0.14 -0.18 0.14 -0.04 -0.04z"/>
  <path d="M52.8 42.38 c0 -0.12 0.07 -0.18 0.24 -0.18 0.51 0 0.56 -0.24 0.56 -2.76 l0 -2.31 -0.26 -0.27 c-0.15 -0.14 -0.37 -0.26 -0.5 -0.26 -0.15 0 -0.24 -0.06 -0.24 -0.15 0 -0.12 0.14 -0.15 0.68 -0.15 0.37 0 0.72 0.04 0.77 0.08 0.06 0.04 0.35 0.36 0.65 0.72 0.3 0.36 0.57 0.67 0.6 0.7 0.03 0.03 0.3 0.34 0.6 0.7 0.3 0.36 0.57 0.67 0.6 0.7 0.03 0.03 0.3 0.34 0.6 0.7 0.3 0.36 0.65 0.76 0.78 0.9 l0.22 0.25 0 -2 c0 -2.24 -0.05 -2.45 -0.61 -2.45 -0.19 0 -0.29 -0.05 -0.29 -0.15 0 -0.12 0.19 -0.15 1.1 -0.15 0.91 0 1.1 0.03 1.1 0.15 0 0.09 -0.09 0.15 -0.23 0.15 -0.13 0 -0.31 0.08 -0.4 0.18 -0.15 0.16 -0.17 0.52 -0.17 3 l0 2.82 -0.25 0 c-0.14 0 -0.29 -0.08 -0.35 -0.19 -0.05 -0.11 -0.16 -0.25 -0.22 -0.33 -0.07 -0.07 -0.33 -0.38 -0.58 -0.68 -0.25 -0.3 -0.47 -0.57 -0.5 -0.6 -0.03 -0.03 -0.3 -0.34 -0.6 -0.7 -0.3 -0.36 -0.57 -0.67 -0.6 -0.7 -0.03 -0.03 -0.25 -0.3 -0.5 -0.6 -0.25 -0.3 -0.57 -0.68 -0.72 -0.85 l-0.28 -0.3 0 2 c0 2.26 0.05 2.48 0.58 2.53 0.23 0.02 0.32 0.08 0.32 0.21 0 0.17 -0.1 0.18 -1.05 0.18 -0.95 0 -1.05 -0.02 -1.05 -0.19z"/>
  <path d="M60 42.39 c0 -0.12 0.09 -0.19 0.27 -0.21 0.48 -0.05 0.53 -0.31 0.53 -2.83 0 -2.51 -0.05 -2.75 -0.56 -2.75 -0.15 0 -0.24 -0.06 -0.24 -0.15 0 -0.12 0.2 -0.15 1.2 -0.15 1 0 1.2 0.03 1.2 0.15 0 0.1 -0.1 0.15 -0.28 0.15 -0.51 0 -0.52 0.04 -0.52 2.86 0 2.84 -0.02 2.74 0.56 2.74 0.17 0 0.24 0.06 0.24 0.19 0 0.18 -0.09 0.19 -1.2 0.18 -1.08 0 -1.2 -0.02 -1.2 -0.18z"/>
  <path d="M85.38 41.62 c-0.03 -0.2 0 -0.28 0.07 -0.26 0.06 0.03 0.11 0.14 0.1 0.24 -0.02 0.32 -0.12 0.33 -0.17 0.02z"/>
  <path d="M84.03 40.31 c-0.32 -0.27 -0.28 -0.33 0.07 -0.13 0.16 0.09 0.3 0.2 0.3 0.25 0 0.12 -0.14 0.07 -0.37 -0.12z"/>
  <path d="M86.74 40.1 c-0.2 -0.08 -0.39 -0.38 -0.3 -0.47 0.03 -0.03 0.15 0.04 0.27 0.16 0.13 0.12 0.26 0.21 0.31 0.21 0.04 0 0.08 0.05 0.08 0.1 0 0.12 -0.07 0.12 -0.36 0z"/>
  <path d="M76.28 39.38 c-0.02 -0.4 0 -0.77 0.04 -0.82 0.04 -0.06 0.08 0.27 0.08 0.72 0 0.45 -0.02 0.82 -0.04 0.82 -0.02 0 -0.06 -0.33 -0.08 -0.72z"/>
  <path d="M85.02 39.78 c0.02 -0.17 0.11 -0.24 0.31 -0.26 0.26 -0.03 0.27 -0.02 0.15 0.22 -0.15 0.33 -0.51 0.36 -0.46 0.04z"/>
  <path d="M88.9 39.6 c0 -0.05 0.14 -0.1 0.32 -0.1 0.36 0 0.35 0.04 -0.04 0.14 -0.17 0.04 -0.28 0.02 -0.28 -0.04z"/>
  <path d="M77.21 38.53 c0 -0.25 0.01 -0.26 0.09 -0.08 0.12 0.27 0.12 0.35 0 0.35 -0.05 0 -0.1 -0.12 -0.09 -0.27z"/>
  <path d="M76.3 37.93 c0 -0.13 0.05 -0.23 0.1 -0.23 0.13 0 0.13 0.11 0 0.3 -0.08 0.12 -0.1 0.11 -0.1 -0.07z"/>
  <path d="M77.13 37.35 c-0.03 -0.09 -0.03 -0.18 0 -0.21 0.09 -0.09 0.27 0.06 0.27 0.22 0 0.19 -0.19 0.18 -0.27 -0.01z"/>
</g>

</svg>